<svg width="67" height="67" viewBox="0 0 67 67" fill="none" xmlns="http://www.w3.org/2000/svg">
<mask id="mask0_113_63" style="mask-type:alpha" maskUnits="userSpaceOnUse" x="0" y="0" width="67" height="67">
<rect width="67" height="67" fill="#D9D9D9"/>
</mask>
<g mask="url(#mask0_113_63)">
<path d="M16.3314 47.7374C18.7043 45.9228 21.3564 44.4916 24.2877 43.4438C27.2189 42.3979 30.2897 41.8749 33.5002 41.8749C36.7106 41.8749 39.7814 42.3979 42.7127 43.4438C45.6439 44.4916 48.296 45.9228 50.6689 47.7374C52.2974 45.8298 53.5657 43.6662 54.474 41.2468C55.3803 38.8274 55.8335 36.2451 55.8335 33.4999C55.8335 27.3117 53.6588 22.042 49.3094 17.6907C44.9581 13.3413 39.6884 11.1666 33.5002 11.1666C27.312 11.1666 22.0432 13.3413 17.6937 17.6907C13.3425 22.042 11.1668 27.3117 11.1668 33.4999C11.1668 36.2451 11.6209 38.8274 12.5292 41.2468C13.4355 43.6662 14.7029 45.8298 16.3314 47.7374ZM33.5002 36.2916C30.755 36.2916 28.4398 35.3499 26.5545 33.4664C24.6711 31.5811 23.7293 29.2659 23.7293 26.5208C23.7293 23.7756 24.6711 21.4604 26.5545 19.5751C28.4398 17.6916 30.755 16.7499 33.5002 16.7499C36.2453 16.7499 38.5605 17.6916 40.4458 19.5751C42.3293 21.4604 43.271 23.7756 43.271 26.5208C43.271 29.2659 42.3293 31.5811 40.4458 33.4664C38.5605 35.3499 36.2453 36.2916 33.5002 36.2916ZM33.5002 61.4166C29.6384 61.4166 26.0092 60.6833 22.6127 59.2168C19.2161 57.7521 16.2616 55.7635 13.7491 53.251C11.2366 50.7385 9.24802 47.784 7.78333 44.3874C6.31677 40.9909 5.5835 37.3617 5.5835 33.4999C5.5835 29.6381 6.31677 26.0089 7.78333 22.6124C9.24802 19.2159 11.2366 16.2614 13.7491 13.7489C16.2616 11.2364 19.2161 9.24685 22.6127 7.78029C26.0092 6.3156 29.6384 5.58325 33.5002 5.58325C37.362 5.58325 40.9911 6.3156 44.3877 7.78029C47.7842 9.24685 50.7387 11.2364 53.2512 13.7489C55.7637 16.2614 57.7523 19.2159 59.217 22.6124C60.6836 26.0089 61.4168 29.6381 61.4168 33.4999C61.4168 37.3617 60.6836 40.9909 59.217 44.3874C57.7523 47.784 55.7637 50.7385 53.2512 53.251C50.7387 55.7635 47.7842 57.7521 44.3877 59.2168C40.9911 60.6833 37.362 61.4166 33.5002 61.4166ZM33.5002 55.8333C35.9661 55.8333 38.2925 55.4731 40.4793 54.7529C42.6661 54.0308 44.6668 52.9951 46.4814 51.6458C44.6668 50.2965 42.6661 49.2607 40.4793 48.5386C38.2925 47.8184 35.9661 47.4583 33.5002 47.4583C31.0342 47.4583 28.7078 47.8184 26.521 48.5386C24.3342 49.2607 22.3335 50.2965 20.5189 51.6458C22.3335 52.9951 24.3342 54.0308 26.521 54.7529C28.7078 55.4731 31.0342 55.8333 33.5002 55.8333ZM33.5002 30.7083C34.7099 30.7083 35.7102 30.3128 36.5012 29.5218C37.2922 28.7308 37.6877 27.7305 37.6877 26.5208C37.6877 25.311 37.2922 24.3107 36.5012 23.5197C35.7102 22.7287 34.7099 22.3333 33.5002 22.3333C32.2904 22.3333 31.2901 22.7287 30.4991 23.5197C29.7082 24.3107 29.3127 25.311 29.3127 26.5208C29.3127 27.7305 29.7082 28.7308 30.4991 29.5218C31.2901 30.3128 32.2904 30.7083 33.5002 30.7083Z" fill="#D3D3D3"/>
</g>
</svg>
