<svg width="109" height="84" viewBox="0 0 109 84" fill="none" xmlns="http://www.w3.org/2000/svg">
<path d="M27.0625 14.9112L0 41.9738L27.0625 69.0363L54.125 41.9738L27.0625 14.9112Z" fill="#17BB27"/>
<path d="M81.24 15.186L54.1775 42.2485L81.24 69.3111L108.303 42.2485L81.24 15.186Z" fill="#009117"/>
<path d="M53.929 84C62.3016 84 69.0888 77.1015 69.0888 68.5917C69.0888 60.0819 62.3016 53.1834 53.929 53.1834C45.5565 53.1834 38.7693 60.0819 38.7693 68.5917C38.7693 77.1015 45.5565 84 53.929 84Z" fill="#36DA46"/>
<path d="M53.929 30.3195C62.3016 30.3195 69.0888 23.5323 69.0888 15.1598C69.0888 6.78726 62.3016 0 53.929 0C45.5565 0 38.7693 6.78726 38.7693 15.1598C38.7693 23.5323 45.5565 30.3195 53.929 30.3195Z" fill="#40BF35"/>
</svg>
